<?xml version="1.0" encoding="UTF-8" standalone="no"?>
<!-- Created with Inkscape (http://www.inkscape.org/) -->

<svg
   version="1.1"
   id="svg2"
   width="711.97345"
   height="563.27545"
   viewBox="0 0 711.97345 563.27545"
   xmlns="http://www.w3.org/2000/svg"
   xmlns:svg="http://www.w3.org/2000/svg">
  <defs
     id="defs6">
    <clipPath
       clipPathUnits="userSpaceOnUse"
       id="clipPath20">
      <path
         d="m 465.65656,221.76 c 0,29.12126 -5.73625,57.95934 -16.88047,84.86388 -11.14423,26.90453 -27.47969,51.35228 -48.07153,71.94412 -20.59184,20.59184 -45.03959,36.9273 -71.94412,48.07152 -26.90453,11.14423 -55.74262,16.88048 -84.86388,16.88048 -29.12125,0 -57.95934,-5.73625 -84.86388,-16.88048 C 132.12815,415.4953 107.6804,399.15984 87.088563,378.568 66.496725,357.97616 50.16126,333.52841 39.017037,306.62388 27.872815,279.71934 22.136563,250.88126 22.136563,221.76 c 0,-29.12126 5.736252,-57.95935 16.880474,-84.86388 C 50.16126,109.99159 66.496725,85.543838 87.088563,64.952 107.6804,44.360162 132.12815,28.024697 159.03268,16.880475 185.93722,5.736253 214.77531,0 243.89656,0 c 29.12126,0 57.95935,5.736253 84.86388,16.880475 26.90453,11.144222 51.35228,27.479687 71.94412,48.071525 20.59184,20.591838 36.9273,45.03959 48.07153,71.94412 11.14422,26.90453 16.88047,55.74262 16.88047,84.86388 m -221.76,0 c 0,0 0,0 0,0 0,0 0,0 0,0 0,0 0,0 0,0 0,0 0,0 0,0 0,0 0,0 0,0 0,0 0,0 0,0 0,0 0,0 0,0 0,0 0,0 0,0 0,0 0,0 0,0 0,0 0,0 0,0 0,0 0,0 0,0 0,0 0,0 0,0 0,0 0,0 0,0 0,0 0,0 0,0 0,0 0,0 0,0 0,0 0,0 0,0 z"
         id="path18" />
    </clipPath>
    <clipPath
       clipPathUnits="userSpaceOnUse"
       id="clipPath30">
      <path
         d="m 465.65656,221.76 c 0,29.12126 -5.73625,57.95934 -16.88047,84.86388 -11.14423,26.90453 -27.47969,51.35228 -48.07153,71.94412 -20.59184,20.59184 -45.03959,36.9273 -71.94412,48.07152 -26.90453,11.14423 -55.74262,16.88048 -84.86388,16.88048 -29.12125,0 -57.95934,-5.73625 -84.86388,-16.88048 C 132.12815,415.4953 107.6804,399.15984 87.088563,378.568 66.496725,357.97616 50.16126,333.52841 39.017037,306.62388 27.872815,279.71934 22.136563,250.88126 22.136563,221.76 c 0,-29.12126 5.736252,-57.95935 16.880474,-84.86388 C 50.16126,109.99159 66.496725,85.543838 87.088563,64.952 107.6804,44.360162 132.12815,28.024697 159.03268,16.880475 185.93722,5.736253 214.77531,0 243.89656,0 c 29.12126,0 57.95935,5.736253 84.86388,16.880475 26.90453,11.144222 51.35228,27.479687 71.94412,48.071525 20.59184,20.591838 36.9273,45.03959 48.07153,71.94412 11.14422,26.90453 16.88047,55.74262 16.88047,84.86388 m -221.76,0 c 0,0 0,0 0,0 0,0 0,0 0,0 0,0 0,0 0,0 0,0 0,0 0,0 0,0 0,0 0,0 0,0 0,0 0,0 0,0 0,0 0,0 0,0 0,0 0,0 0,0 0,0 0,0 0,0 0,0 0,0 0,0 0,0 0,0 0,0 0,0 0,0 0,0 0,0 0,0 0,0 0,0 0,0 0,0 0,0 0,0 0,0 0,0 0,0 z"
         id="path28" />
    </clipPath>
    <clipPath
       clipPathUnits="userSpaceOnUse"
       id="clipPath40">
      <path
         d="m 465.65656,221.76 c 0,29.12126 -5.73625,57.95934 -16.88047,84.86388 -11.14423,26.90453 -27.47969,51.35228 -48.07153,71.94412 -20.59184,20.59184 -45.03959,36.9273 -71.94412,48.07152 -26.90453,11.14423 -55.74262,16.88048 -84.86388,16.88048 -29.12125,0 -57.95934,-5.73625 -84.86388,-16.88048 C 132.12815,415.4953 107.6804,399.15984 87.088563,378.568 66.496725,357.97616 50.16126,333.52841 39.017037,306.62388 27.872815,279.71934 22.136563,250.88126 22.136563,221.76 c 0,-29.12126 5.736252,-57.95935 16.880474,-84.86388 C 50.16126,109.99159 66.496725,85.543838 87.088563,64.952 107.6804,44.360162 132.12815,28.024697 159.03268,16.880475 185.93722,5.736253 214.77531,0 243.89656,0 c 29.12126,0 57.95935,5.736253 84.86388,16.880475 26.90453,11.144222 51.35228,27.479687 71.94412,48.071525 20.59184,20.591838 36.9273,45.03959 48.07153,71.94412 11.14422,26.90453 16.88047,55.74262 16.88047,84.86388 m -221.76,0 c 0,0 0,0 0,0 0,0 0,0 0,0 0,0 0,0 0,0 0,0 0,0 0,0 0,0 0,0 0,0 0,0 0,0 0,0 0,0 0,0 0,0 0,0 0,0 0,0 0,0 0,0 0,0 0,0 0,0 0,0 0,0 0,0 0,0 0,0 0,0 0,0 0,0 0,0 0,0 0,0 0,0 0,0 0,0 0,0 0,0 0,0 0,0 0,0 z"
         id="path38" />
    </clipPath>
    <clipPath
       clipPathUnits="userSpaceOnUse"
       id="clipPath50">
      <path
         d="m 465.65656,221.76 c 0,29.12126 -5.73625,57.95934 -16.88047,84.86388 -11.14423,26.90453 -27.47969,51.35228 -48.07153,71.94412 -20.59184,20.59184 -45.03959,36.9273 -71.94412,48.07152 -26.90453,11.14423 -55.74262,16.88048 -84.86388,16.88048 -29.12125,0 -57.95934,-5.73625 -84.86388,-16.88048 C 132.12815,415.4953 107.6804,399.15984 87.088563,378.568 66.496725,357.97616 50.16126,333.52841 39.017037,306.62388 27.872815,279.71934 22.136563,250.88126 22.136563,221.76 c 0,-29.12126 5.736252,-57.95935 16.880474,-84.86388 C 50.16126,109.99159 66.496725,85.543838 87.088563,64.952 107.6804,44.360162 132.12815,28.024697 159.03268,16.880475 185.93722,5.736253 214.77531,0 243.89656,0 c 29.12126,0 57.95935,5.736253 84.86388,16.880475 26.90453,11.144222 51.35228,27.479687 71.94412,48.071525 20.59184,20.591838 36.9273,45.03959 48.07153,71.94412 11.14422,26.90453 16.88047,55.74262 16.88047,84.86388 m -221.76,0 c 0,0 0,0 0,0 0,0 0,0 0,0 0,0 0,0 0,0 0,0 0,0 0,0 0,0 0,0 0,0 0,0 0,0 0,0 0,0 0,0 0,0 0,0 0,0 0,0 0,0 0,0 0,0 0,0 0,0 0,0 0,0 0,0 0,0 0,0 0,0 0,0 0,0 0,0 0,0 0,0 0,0 0,0 0,0 0,0 0,0 0,0 0,0 0,0 z"
         id="path48" />
    </clipPath>
    <clipPath
       clipPathUnits="userSpaceOnUse"
       id="clipPath60">
      <path
         d="m 465.65656,221.76 c 0,29.12126 -5.73625,57.95934 -16.88047,84.86388 -11.14423,26.90453 -27.47969,51.35228 -48.07153,71.94412 -20.59184,20.59184 -45.03959,36.9273 -71.94412,48.07152 -26.90453,11.14423 -55.74262,16.88048 -84.86388,16.88048 -29.12125,0 -57.95934,-5.73625 -84.86388,-16.88048 C 132.12815,415.4953 107.6804,399.15984 87.088563,378.568 66.496725,357.97616 50.16126,333.52841 39.017037,306.62388 27.872815,279.71934 22.136563,250.88126 22.136563,221.76 c 0,-29.12126 5.736252,-57.95935 16.880474,-84.86388 C 50.16126,109.99159 66.496725,85.543838 87.088563,64.952 107.6804,44.360162 132.12815,28.024697 159.03268,16.880475 185.93722,5.736253 214.77531,0 243.89656,0 c 29.12126,0 57.95935,5.736253 84.86388,16.880475 26.90453,11.144222 51.35228,27.479687 71.94412,48.071525 20.59184,20.591838 36.9273,45.03959 48.07153,71.94412 11.14422,26.90453 16.88047,55.74262 16.88047,84.86388 m -221.76,0 c 0,0 0,0 0,0 0,0 0,0 0,0 0,0 0,0 0,0 0,0 0,0 0,0 0,0 0,0 0,0 0,0 0,0 0,0 0,0 0,0 0,0 0,0 0,0 0,0 0,0 0,0 0,0 0,0 0,0 0,0 0,0 0,0 0,0 0,0 0,0 0,0 0,0 0,0 0,0 0,0 0,0 0,0 0,0 0,0 0,0 0,0 0,0 0,0 z"
         id="path58" />
    </clipPath>
    <clipPath
       clipPathUnits="userSpaceOnUse"
       id="clipPath70">
      <path
         d="m 465.65656,221.76 c 0,29.12126 -5.73625,57.95934 -16.88047,84.86388 -11.14423,26.90453 -27.47969,51.35228 -48.07153,71.94412 -20.59184,20.59184 -45.03959,36.9273 -71.94412,48.07152 -26.90453,11.14423 -55.74262,16.88048 -84.86388,16.88048 -29.12125,0 -57.95934,-5.73625 -84.86388,-16.88048 C 132.12815,415.4953 107.6804,399.15984 87.088563,378.568 66.496725,357.97616 50.16126,333.52841 39.017037,306.62388 27.872815,279.71934 22.136563,250.88126 22.136563,221.76 c 0,-29.12126 5.736252,-57.95935 16.880474,-84.86388 C 50.16126,109.99159 66.496725,85.543838 87.088563,64.952 107.6804,44.360162 132.12815,28.024697 159.03268,16.880475 185.93722,5.736253 214.77531,0 243.89656,0 c 29.12126,0 57.95935,5.736253 84.86388,16.880475 26.90453,11.144222 51.35228,27.479687 71.94412,48.071525 20.59184,20.591838 36.9273,45.03959 48.07153,71.94412 11.14422,26.90453 16.88047,55.74262 16.88047,84.86388 m -221.76,0 c 0,0 0,0 0,0 0,0 0,0 0,0 0,0 0,0 0,0 0,0 0,0 0,0 0,0 0,0 0,0 0,0 0,0 0,0 0,0 0,0 0,0 0,0 0,0 0,0 0,0 0,0 0,0 0,0 0,0 0,0 0,0 0,0 0,0 0,0 0,0 0,0 0,0 0,0 0,0 0,0 0,0 0,0 0,0 0,0 0,0 0,0 0,0 0,0 z"
         id="path68" />
    </clipPath>
    <clipPath
       clipPathUnits="userSpaceOnUse"
       id="clipPath80">
      <path
         d="m 465.65656,221.76 c 0,29.12126 -5.73625,57.95934 -16.88047,84.86388 -11.14423,26.90453 -27.47969,51.35228 -48.07153,71.94412 -20.59184,20.59184 -45.03959,36.9273 -71.94412,48.07152 -26.90453,11.14423 -55.74262,16.88048 -84.86388,16.88048 -29.12125,0 -57.95934,-5.73625 -84.86388,-16.88048 C 132.12815,415.4953 107.6804,399.15984 87.088563,378.568 66.496725,357.97616 50.16126,333.52841 39.017037,306.62388 27.872815,279.71934 22.136563,250.88126 22.136563,221.76 c 0,-29.12126 5.736252,-57.95935 16.880474,-84.86388 C 50.16126,109.99159 66.496725,85.543838 87.088563,64.952 107.6804,44.360162 132.12815,28.024697 159.03268,16.880475 185.93722,5.736253 214.77531,0 243.89656,0 c 29.12126,0 57.95935,5.736253 84.86388,16.880475 26.90453,11.144222 51.35228,27.479687 71.94412,48.071525 20.59184,20.591838 36.9273,45.03959 48.07153,71.94412 11.14422,26.90453 16.88047,55.74262 16.88047,84.86388 m -221.76,0 c 0,0 0,0 0,0 0,0 0,0 0,0 0,0 0,0 0,0 0,0 0,0 0,0 0,0 0,0 0,0 0,0 0,0 0,0 0,0 0,0 0,0 0,0 0,0 0,0 0,0 0,0 0,0 0,0 0,0 0,0 0,0 0,0 0,0 0,0 0,0 0,0 0,0 0,0 0,0 0,0 0,0 0,0 0,0 0,0 0,0 0,0 0,0 0,0 z"
         id="path78" />
    </clipPath>
    <clipPath
       clipPathUnits="userSpaceOnUse"
       id="clipPath90">
      <path
         d="m 465.65656,221.76 c 0,29.12126 -5.73625,57.95934 -16.88047,84.86388 -11.14423,26.90453 -27.47969,51.35228 -48.07153,71.94412 -20.59184,20.59184 -45.03959,36.9273 -71.94412,48.07152 -26.90453,11.14423 -55.74262,16.88048 -84.86388,16.88048 -29.12125,0 -57.95934,-5.73625 -84.86388,-16.88048 C 132.12815,415.4953 107.6804,399.15984 87.088563,378.568 66.496725,357.97616 50.16126,333.52841 39.017037,306.62388 27.872815,279.71934 22.136563,250.88126 22.136563,221.76 c 0,-29.12126 5.736252,-57.95935 16.880474,-84.86388 C 50.16126,109.99159 66.496725,85.543838 87.088563,64.952 107.6804,44.360162 132.12815,28.024697 159.03268,16.880475 185.93722,5.736253 214.77531,0 243.89656,0 c 29.12126,0 57.95935,5.736253 84.86388,16.880475 26.90453,11.144222 51.35228,27.479687 71.94412,48.071525 20.59184,20.591838 36.9273,45.03959 48.07153,71.94412 11.14422,26.90453 16.88047,55.74262 16.88047,84.86388 m -221.76,0 c 0,0 0,0 0,0 0,0 0,0 0,0 0,0 0,0 0,0 0,0 0,0 0,0 0,0 0,0 0,0 0,0 0,0 0,0 0,0 0,0 0,0 0,0 0,0 0,0 0,0 0,0 0,0 0,0 0,0 0,0 0,0 0,0 0,0 0,0 0,0 0,0 0,0 0,0 0,0 0,0 0,0 0,0 0,0 0,0 0,0 0,0 0,0 0,0 z"
         id="path88" />
    </clipPath>
    <clipPath
       clipPathUnits="userSpaceOnUse"
       id="clipPath100">
      <path
         d="m 465.65656,221.76 c 0,29.12126 -5.73625,57.95934 -16.88047,84.86388 -11.14423,26.90453 -27.47969,51.35228 -48.07153,71.94412 -20.59184,20.59184 -45.03959,36.9273 -71.94412,48.07152 -26.90453,11.14423 -55.74262,16.88048 -84.86388,16.88048 -29.12125,0 -57.95934,-5.73625 -84.86388,-16.88048 C 132.12815,415.4953 107.6804,399.15984 87.088563,378.568 66.496725,357.97616 50.16126,333.52841 39.017037,306.62388 27.872815,279.71934 22.136563,250.88126 22.136563,221.76 c 0,-29.12126 5.736252,-57.95935 16.880474,-84.86388 C 50.16126,109.99159 66.496725,85.543838 87.088563,64.952 107.6804,44.360162 132.12815,28.024697 159.03268,16.880475 185.93722,5.736253 214.77531,0 243.89656,0 c 29.12126,0 57.95935,5.736253 84.86388,16.880475 26.90453,11.144222 51.35228,27.479687 71.94412,48.071525 20.59184,20.591838 36.9273,45.03959 48.07153,71.94412 11.14422,26.90453 16.88047,55.74262 16.88047,84.86388 m -221.76,0 c 0,0 0,0 0,0 0,0 0,0 0,0 0,0 0,0 0,0 0,0 0,0 0,0 0,0 0,0 0,0 0,0 0,0 0,0 0,0 0,0 0,0 0,0 0,0 0,0 0,0 0,0 0,0 0,0 0,0 0,0 0,0 0,0 0,0 0,0 0,0 0,0 0,0 0,0 0,0 0,0 0,0 0,0 0,0 0,0 0,0 0,0 0,0 0,0 z"
         id="path98" />
    </clipPath>
    <clipPath
       clipPathUnits="userSpaceOnUse"
       id="clipPath110">
      <path
         d="m 465.65656,221.76 c 0,29.12126 -5.73625,57.95934 -16.88047,84.86388 -11.14423,26.90453 -27.47969,51.35228 -48.07153,71.94412 -20.59184,20.59184 -45.03959,36.9273 -71.94412,48.07152 -26.90453,11.14423 -55.74262,16.88048 -84.86388,16.88048 -29.12125,0 -57.95934,-5.73625 -84.86388,-16.88048 C 132.12815,415.4953 107.6804,399.15984 87.088563,378.568 66.496725,357.97616 50.16126,333.52841 39.017037,306.62388 27.872815,279.71934 22.136563,250.88126 22.136563,221.76 c 0,-29.12126 5.736252,-57.95935 16.880474,-84.86388 C 50.16126,109.99159 66.496725,85.543838 87.088563,64.952 107.6804,44.360162 132.12815,28.024697 159.03268,16.880475 185.93722,5.736253 214.77531,0 243.89656,0 c 29.12126,0 57.95935,5.736253 84.86388,16.880475 26.90453,11.144222 51.35228,27.479687 71.94412,48.071525 20.59184,20.591838 36.9273,45.03959 48.07153,71.94412 11.14422,26.90453 16.88047,55.74262 16.88047,84.86388 m -221.76,0 c 0,0 0,0 0,0 0,0 0,0 0,0 0,0 0,0 0,0 0,0 0,0 0,0 0,0 0,0 0,0 0,0 0,0 0,0 0,0 0,0 0,0 0,0 0,0 0,0 0,0 0,0 0,0 0,0 0,0 0,0 0,0 0,0 0,0 0,0 0,0 0,0 0,0 0,0 0,0 0,0 0,0 0,0 0,0 0,0 0,0 0,0 0,0 0,0 z"
         id="path108" />
    </clipPath>
    <clipPath
       clipPathUnits="userSpaceOnUse"
       id="clipPath120">
      <path
         d="m 465.65656,221.76 c 0,29.12126 -5.73625,57.95934 -16.88047,84.86388 -11.14423,26.90453 -27.47969,51.35228 -48.07153,71.94412 -20.59184,20.59184 -45.03959,36.9273 -71.94412,48.07152 -26.90453,11.14423 -55.74262,16.88048 -84.86388,16.88048 -29.12125,0 -57.95934,-5.73625 -84.86388,-16.88048 C 132.12815,415.4953 107.6804,399.15984 87.088563,378.568 66.496725,357.97616 50.16126,333.52841 39.017037,306.62388 27.872815,279.71934 22.136563,250.88126 22.136563,221.76 c 0,-29.12126 5.736252,-57.95935 16.880474,-84.86388 C 50.16126,109.99159 66.496725,85.543838 87.088563,64.952 107.6804,44.360162 132.12815,28.024697 159.03268,16.880475 185.93722,5.736253 214.77531,0 243.89656,0 c 29.12126,0 57.95935,5.736253 84.86388,16.880475 26.90453,11.144222 51.35228,27.479687 71.94412,48.071525 20.59184,20.591838 36.9273,45.03959 48.07153,71.94412 11.14422,26.90453 16.88047,55.74262 16.88047,84.86388 m -221.76,0 c 0,0 0,0 0,0 0,0 0,0 0,0 0,0 0,0 0,0 0,0 0,0 0,0 0,0 0,0 0,0 0,0 0,0 0,0 0,0 0,0 0,0 0,0 0,0 0,0 0,0 0,0 0,0 0,0 0,0 0,0 0,0 0,0 0,0 0,0 0,0 0,0 0,0 0,0 0,0 0,0 0,0 0,0 0,0 0,0 0,0 0,0 0,0 0,0 z"
         id="path118" />
    </clipPath>
    <clipPath
       clipPathUnits="userSpaceOnUse"
       id="clipPath130">
      <path
         d="m 465.65656,221.76 c 0,29.12126 -5.73625,57.95934 -16.88047,84.86388 -11.14423,26.90453 -27.47969,51.35228 -48.07153,71.94412 -20.59184,20.59184 -45.03959,36.9273 -71.94412,48.07152 -26.90453,11.14423 -55.74262,16.88048 -84.86388,16.88048 -29.12125,0 -57.95934,-5.73625 -84.86388,-16.88048 C 132.12815,415.4953 107.6804,399.15984 87.088563,378.568 66.496725,357.97616 50.16126,333.52841 39.017037,306.62388 27.872815,279.71934 22.136563,250.88126 22.136563,221.76 c 0,-29.12126 5.736252,-57.95935 16.880474,-84.86388 C 50.16126,109.99159 66.496725,85.543838 87.088563,64.952 107.6804,44.360162 132.12815,28.024697 159.03268,16.880475 185.93722,5.736253 214.77531,0 243.89656,0 c 29.12126,0 57.95935,5.736253 84.86388,16.880475 26.90453,11.144222 51.35228,27.479687 71.94412,48.071525 20.59184,20.591838 36.9273,45.03959 48.07153,71.94412 11.14422,26.90453 16.88047,55.74262 16.88047,84.86388 m -221.76,0 c 0,0 0,0 0,0 0,0 0,0 0,0 0,0 0,0 0,0 0,0 0,0 0,0 0,0 0,0 0,0 0,0 0,0 0,0 0,0 0,0 0,0 0,0 0,0 0,0 0,0 0,0 0,0 0,0 0,0 0,0 0,0 0,0 0,0 0,0 0,0 0,0 0,0 0,0 0,0 0,0 0,0 0,0 0,0 0,0 0,0 0,0 0,0 0,0 z"
         id="path128" />
    </clipPath>
    <clipPath
       clipPathUnits="userSpaceOnUse"
       id="clipPath140">
      <path
         d="m 465.65656,221.76 c 0,29.12126 -5.73625,57.95934 -16.88047,84.86388 -11.14423,26.90453 -27.47969,51.35228 -48.07153,71.94412 -20.59184,20.59184 -45.03959,36.9273 -71.94412,48.07152 -26.90453,11.14423 -55.74262,16.88048 -84.86388,16.88048 -29.12125,0 -57.95934,-5.73625 -84.86388,-16.88048 C 132.12815,415.4953 107.6804,399.15984 87.088563,378.568 66.496725,357.97616 50.16126,333.52841 39.017037,306.62388 27.872815,279.71934 22.136563,250.88126 22.136563,221.76 c 0,-29.12126 5.736252,-57.95935 16.880474,-84.86388 C 50.16126,109.99159 66.496725,85.543838 87.088563,64.952 107.6804,44.360162 132.12815,28.024697 159.03268,16.880475 185.93722,5.736253 214.77531,0 243.89656,0 c 29.12126,0 57.95935,5.736253 84.86388,16.880475 26.90453,11.144222 51.35228,27.479687 71.94412,48.071525 20.59184,20.591838 36.9273,45.03959 48.07153,71.94412 11.14422,26.90453 16.88047,55.74262 16.88047,84.86388 m -221.76,0 c 0,0 0,0 0,0 0,0 0,0 0,0 0,0 0,0 0,0 0,0 0,0 0,0 0,0 0,0 0,0 0,0 0,0 0,0 0,0 0,0 0,0 0,0 0,0 0,0 0,0 0,0 0,0 0,0 0,0 0,0 0,0 0,0 0,0 0,0 0,0 0,0 0,0 0,0 0,0 0,0 0,0 0,0 0,0 0,0 0,0 0,0 0,0 0,0 z"
         id="path138" />
    </clipPath>
    <clipPath
       clipPathUnits="userSpaceOnUse"
       id="clipPath150">
      <path
         d="m 465.65656,221.76 c 0,29.12126 -5.73625,57.95934 -16.88047,84.86388 -11.14423,26.90453 -27.47969,51.35228 -48.07153,71.94412 -20.59184,20.59184 -45.03959,36.9273 -71.94412,48.07152 -26.90453,11.14423 -55.74262,16.88048 -84.86388,16.88048 -29.12125,0 -57.95934,-5.73625 -84.86388,-16.88048 C 132.12815,415.4953 107.6804,399.15984 87.088563,378.568 66.496725,357.97616 50.16126,333.52841 39.017037,306.62388 27.872815,279.71934 22.136563,250.88126 22.136563,221.76 c 0,-29.12126 5.736252,-57.95935 16.880474,-84.86388 C 50.16126,109.99159 66.496725,85.543838 87.088563,64.952 107.6804,44.360162 132.12815,28.024697 159.03268,16.880475 185.93722,5.736253 214.77531,0 243.89656,0 c 29.12126,0 57.95935,5.736253 84.86388,16.880475 26.90453,11.144222 51.35228,27.479687 71.94412,48.071525 20.59184,20.591838 36.9273,45.03959 48.07153,71.94412 11.14422,26.90453 16.88047,55.74262 16.88047,84.86388 m -221.76,0 c 0,0 0,0 0,0 0,0 0,0 0,0 0,0 0,0 0,0 0,0 0,0 0,0 0,0 0,0 0,0 0,0 0,0 0,0 0,0 0,0 0,0 0,0 0,0 0,0 0,0 0,0 0,0 0,0 0,0 0,0 0,0 0,0 0,0 0,0 0,0 0,0 0,0 0,0 0,0 0,0 0,0 0,0 0,0 0,0 0,0 0,0 0,0 0,0 z"
         id="path148" />
    </clipPath>
    <clipPath
       clipPathUnits="userSpaceOnUse"
       id="clipPath160">
      <path
         d="m 465.65656,221.76 c 0,29.12126 -5.73625,57.95934 -16.88047,84.86388 -11.14423,26.90453 -27.47969,51.35228 -48.07153,71.94412 -20.59184,20.59184 -45.03959,36.9273 -71.94412,48.07152 -26.90453,11.14423 -55.74262,16.88048 -84.86388,16.88048 -29.12125,0 -57.95934,-5.73625 -84.86388,-16.88048 C 132.12815,415.4953 107.6804,399.15984 87.088563,378.568 66.496725,357.97616 50.16126,333.52841 39.017037,306.62388 27.872815,279.71934 22.136563,250.88126 22.136563,221.76 c 0,-29.12126 5.736252,-57.95935 16.880474,-84.86388 C 50.16126,109.99159 66.496725,85.543838 87.088563,64.952 107.6804,44.360162 132.12815,28.024697 159.03268,16.880475 185.93722,5.736253 214.77531,0 243.89656,0 c 29.12126,0 57.95935,5.736253 84.86388,16.880475 26.90453,11.144222 51.35228,27.479687 71.94412,48.071525 20.59184,20.591838 36.9273,45.03959 48.07153,71.94412 11.14422,26.90453 16.88047,55.74262 16.88047,84.86388 m -221.76,0 c 0,0 0,0 0,0 0,0 0,0 0,0 0,0 0,0 0,0 0,0 0,0 0,0 0,0 0,0 0,0 0,0 0,0 0,0 0,0 0,0 0,0 0,0 0,0 0,0 0,0 0,0 0,0 0,0 0,0 0,0 0,0 0,0 0,0 0,0 0,0 0,0 0,0 0,0 0,0 0,0 0,0 0,0 0,0 0,0 0,0 0,0 0,0 0,0 z"
         id="path158" />
    </clipPath>
    <clipPath
       clipPathUnits="userSpaceOnUse"
       id="clipPath170">
      <path
         d="m 465.65656,221.76 c 0,29.12126 -5.73625,57.95934 -16.88047,84.86388 -11.14423,26.90453 -27.47969,51.35228 -48.07153,71.94412 -20.59184,20.59184 -45.03959,36.9273 -71.94412,48.07152 -26.90453,11.14423 -55.74262,16.88048 -84.86388,16.88048 -29.12125,0 -57.95934,-5.73625 -84.86388,-16.88048 C 132.12815,415.4953 107.6804,399.15984 87.088563,378.568 66.496725,357.97616 50.16126,333.52841 39.017037,306.62388 27.872815,279.71934 22.136563,250.88126 22.136563,221.76 c 0,-29.12126 5.736252,-57.95935 16.880474,-84.86388 C 50.16126,109.99159 66.496725,85.543838 87.088563,64.952 107.6804,44.360162 132.12815,28.024697 159.03268,16.880475 185.93722,5.736253 214.77531,0 243.89656,0 c 29.12126,0 57.95935,5.736253 84.86388,16.880475 26.90453,11.144222 51.35228,27.479687 71.94412,48.071525 20.59184,20.591838 36.9273,45.03959 48.07153,71.94412 11.14422,26.90453 16.88047,55.74262 16.88047,84.86388 m -221.76,0 c 0,0 0,0 0,0 0,0 0,0 0,0 0,0 0,0 0,0 0,0 0,0 0,0 0,0 0,0 0,0 0,0 0,0 0,0 0,0 0,0 0,0 0,0 0,0 0,0 0,0 0,0 0,0 0,0 0,0 0,0 0,0 0,0 0,0 0,0 0,0 0,0 0,0 0,0 0,0 0,0 0,0 0,0 0,0 0,0 0,0 0,0 0,0 0,0 z"
         id="path168" />
    </clipPath>
    <clipPath
       clipPathUnits="userSpaceOnUse"
       id="clipPath180">
      <path
         d="m 465.65656,221.76 c 0,29.12126 -5.73625,57.95934 -16.88047,84.86388 -11.14423,26.90453 -27.47969,51.35228 -48.07153,71.94412 -20.59184,20.59184 -45.03959,36.9273 -71.94412,48.07152 -26.90453,11.14423 -55.74262,16.88048 -84.86388,16.88048 -29.12125,0 -57.95934,-5.73625 -84.86388,-16.88048 C 132.12815,415.4953 107.6804,399.15984 87.088563,378.568 66.496725,357.97616 50.16126,333.52841 39.017037,306.62388 27.872815,279.71934 22.136563,250.88126 22.136563,221.76 c 0,-29.12126 5.736252,-57.95935 16.880474,-84.86388 C 50.16126,109.99159 66.496725,85.543838 87.088563,64.952 107.6804,44.360162 132.12815,28.024697 159.03268,16.880475 185.93722,5.736253 214.77531,0 243.89656,0 c 29.12126,0 57.95935,5.736253 84.86388,16.880475 26.90453,11.144222 51.35228,27.479687 71.94412,48.071525 20.59184,20.591838 36.9273,45.03959 48.07153,71.94412 11.14422,26.90453 16.88047,55.74262 16.88047,84.86388 m -221.76,0 c 0,0 0,0 0,0 0,0 0,0 0,0 0,0 0,0 0,0 0,0 0,0 0,0 0,0 0,0 0,0 0,0 0,0 0,0 0,0 0,0 0,0 0,0 0,0 0,0 0,0 0,0 0,0 0,0 0,0 0,0 0,0 0,0 0,0 0,0 0,0 0,0 0,0 0,0 0,0 0,0 0,0 0,0 0,0 0,0 0,0 0,0 0,0 0,0 z"
         id="path178" />
    </clipPath>
  </defs>
  <g
     id="g8"
     transform="matrix(1.3333333,0,0,-1.3333333,-0.22253413,577.04773)">
    <path
       d="M 0,0 H 539.58346 V 443.52 H 0 Z"
       style="fill:#ffffff;fill-opacity:1;fill-rule:nonzero;stroke:none"
       id="path10" />
    <path
       d="m 465.65656,221.76 c 0,29.12126 -5.73625,57.95934 -16.88047,84.86388 -11.14423,26.90453 -27.47969,51.35228 -48.07153,71.94412 -20.59184,20.59184 -45.03959,36.9273 -71.94412,48.07152 -26.90453,11.14423 -55.74262,16.88048 -84.86388,16.88048 -29.12125,0 -57.95934,-5.73625 -84.86388,-16.88048 C 132.12815,415.4953 107.6804,399.15984 87.088563,378.568 66.496725,357.97616 50.16126,333.52841 39.017037,306.62388 27.872815,279.71934 22.136563,250.88126 22.136563,221.76 c 0,-29.12126 5.736252,-57.95935 16.880474,-84.86388 C 50.16126,109.99159 66.496725,85.543838 87.088563,64.952 107.6804,44.360162 132.12815,28.024697 159.03268,16.880475 185.93722,5.736253 214.77531,0 243.89656,0 c 29.12126,0 57.95935,5.736253 84.86388,16.880475 26.90453,11.144222 51.35228,27.479687 71.94412,48.071525 20.59184,20.591838 36.9273,45.03959 48.07153,71.94412 11.14422,26.90453 16.88047,55.74262 16.88047,84.86388 m -221.76,0 c 0,0 0,0 0,0 0,0 0,0 0,0 0,0 0,0 0,0 0,0 0,0 0,0 0,0 0,0 0,0 0,0 0,0 0,0 0,0 0,0 0,0 0,0 0,0 0,0 0,0 0,0 0,0 0,0 0,0 0,0 0,0 0,0 0,0 0,0 0,0 0,0 0,0 0,0 0,0 0,0 0,0 0,0 0,0 0,0 0,0 0,0 0,0 0,0 z"
       style="fill:#ffffff;fill-opacity:1;fill-rule:nonzero;stroke:none"
       id="path12" />
    <g
       id="g14">
      <g
         id="g16"
         clip-path="url(#clipPath20)">
        <path
           d="m 387.16281,221.76 -29.45623,82.68782 -87.08167,-0.42644 -71.28228,54.86152 -77.27862,-48.60637 -35.208957,-88.51653 32.968607,-90.14424 77.603,-52.875398 87.59492,16.449832 87.02327,33.464626 z"
           style="fill:#ff0000;fill-opacity:0.2;fill-rule:nonzero;stroke:#ff0000;stroke-width:1;stroke-linecap:butt;stroke-linejoin:miter;stroke-miterlimit:10;stroke-dasharray:none;stroke-opacity:0.2"
           id="path22" />
      </g>
    </g>
    <g
       id="g24">
      <g
         id="g26"
         clip-path="url(#clipPath30)">
        <path
           d="m 402.29656,221.76 -30.25171,93.10518 -79.2,57.54217 h -97.89658 l -79.2,-57.54217 -30.251707,-93.10518 30.251707,-93.10518 79.2,-57.542172 h 97.89658 l 72.08065,62.714682 z"
           style="fill:#9400d3;fill-opacity:0.2;fill-rule:nonzero;stroke:#9400d3;stroke-width:1;stroke-linecap:butt;stroke-linejoin:miter;stroke-miterlimit:10;stroke-dasharray:none;stroke-opacity:0.2"
           id="path32" />
      </g>
    </g>
    <g
       id="g34">
      <g
         id="g36"
         clip-path="url(#clipPath40)">
        <path
           d="m 387.16281,221.76 -29.45623,82.68782 -87.08167,-0.42644 -71.28228,54.86152 -77.27862,-48.60637 -35.208957,-88.51653 32.968607,-90.14424 77.603,-52.875398 87.59492,16.449832 87.02327,33.464626 15.11796,93.10518"
           style="fill:none;stroke:#ff0000;stroke-width:2;stroke-linecap:square;stroke-linejoin:round;stroke-miterlimit:10;stroke-dasharray:none;stroke-opacity:1"
           id="path42" />
      </g>
    </g>
    <g
       id="g44">
      <g
         id="g46"
         clip-path="url(#clipPath50)">
        <path
           d="m 402.29656,221.76 -30.25171,93.10518 -79.2,57.54217 h -97.89658 l -79.2,-57.54217 -30.251707,-93.10518 30.251707,-93.10518 79.2,-57.542172 h 97.89658 L 364.9255,133.82733 402.29656,221.76"
           style="fill:none;stroke:#9400d3;stroke-width:2;stroke-linecap:square;stroke-linejoin:round;stroke-miterlimit:10;stroke-dasharray:none;stroke-opacity:1"
           id="path52" />
      </g>
    </g>
    <g
       id="g54">
      <g
         id="g56"
         clip-path="url(#clipPath60)">
        <path
           d="m 323.09656,221.76 -0.15786,4.99797 -0.47294,4.97804 -0.78614,4.93827 -1.09621,4.87883 -1.4019,4.79992 -1.70202,4.70188 -1.99533,4.58511 -2.28071,4.45006 -2.55698,4.29725 -2.82307,4.12734 -3.07789,3.94095 -3.32046,3.73887 -3.54979,3.52187 -3.76496,3.29085 -3.96513,3.04669 -4.14948,2.7904 -4.31731,2.52299 -4.46792,2.2455 -4.60071,1.95909 -4.71518,1.66484 -4.81084,1.36398 -4.88732,1.05766 -4.94433,0.74714 -4.98162,0.43363 -4.99905,0.1184 -4.99657,-0.1973 -4.97415,-0.51222 -4.93192,-0.8251 -4.87002,-1.13468 -4.7887,-1.43975 -4.68831,-1.73907 -4.56921,-2.03147 -4.43191,-2.31576 -4.27694,-2.59082 -4.10493,-2.85556 -3.91653,-3.10891 -3.71254,-3.34987 -3.49375,-3.57747 -3.26102,-3.79082 -3.01531,-3.98906 -2.75755,-4.17138 -2.48883,-4.33709 -2.21017,-4.4855 -1.92271,-4.61603 -1.62757,-4.72817 -1.32596,-4.82146 -1.01905,-4.89552 -0.70809,-4.95007 -0.3943,-4.98489 -0.0789,-4.99983 0.23674,-4.99485 0.55147,-4.96996 0.864,-4.92525 1.17309,-4.86091 1.4775,-4.77719 1.77603,-4.67443 2.06746,-4.55304 2.35067,-4.4135 2.62451,-4.25635 2.88787,-4.08225 3.13972,-3.89188 3.37907,-3.68598 3.60494,-3.4654 3.81644,-3.231 4.01273,-2.98372 4.19302,-2.72455 4.3566,-2.45452 4.50281,-2.17469 4.63107,-1.88621 4.74087,-1.59021 4.83177,-1.28785 4.90341,-0.98038 4.9555,-0.669 4.98785,-0.35494 5.0003,-0.0395 4.99283,0.27615 4.96545,0.59068 4.91827,0.90285 4.8515,1.21142 4.76538,1.51517 4.66027,1.81287 4.53658,2.10334 4.3948,2.38543 4.23551,2.65802 4.05933,2.92 3.86697,3.17035 3.6592,3.40806 3.43683,3.63218 3.20078,3.84183 2.95195,4.03615 2.69137,4.2144 2.42005,4.37584 2.13908,4.51983 1.8496,4.64581 1.55273,4.75328 1.24968,4.84178 0.94164,4.911 0.62986,4.96063 0.31556,4.99049 0.0395,2.50023 v 0"
           style="fill:none;stroke:#808080;stroke-width:1;stroke-linecap:butt;stroke-linejoin:round;stroke-miterlimit:10;stroke-dasharray:3.7, 1.6;stroke-dashoffset:0;stroke-opacity:1"
           id="path62" />
      </g>
    </g>
    <g
       id="g64">
      <g
         id="g66"
         clip-path="url(#clipPath70)">
        <path
           d="m 362.69656,221.76 -0.0592,3.75034 -0.17757,3.74661 -0.29576,3.73913 -0.41366,3.72793 -0.53113,3.71302 -0.64808,3.6944 -0.76439,3.67209 -0.87992,3.64614 -0.9946,3.61654 -1.10826,3.58334 -1.22083,3.54657 -1.33219,3.50626 -1.44221,3.46246 -1.55079,3.4152 -1.65784,3.36455 -1.76322,3.31053 -1.86685,3.25322 -1.96862,3.19267 -2.06843,3.12893 -2.16617,3.06207 -2.26176,2.99216 -2.35509,2.91927 -2.44607,2.84347 -2.53462,2.76483 -2.62064,2.68344 -2.70404,2.59937 -2.78475,2.51272 -2.86269,2.42355 -2.93777,2.33197 -3.00992,2.23807 -3.07907,2.14194 -3.14516,2.04366 -3.20811,1.94336 -3.26785,1.84112 -3.32435,1.73704 -3.37753,1.63122 -3.42734,1.52379 -3.47373,1.41483 -3.51667,1.30447 -3.55609,1.1928 -3.59198,1.07995 -3.62428,0.96601 -3.65297,0.85112 -3.67801,0.73538 -3.6994,0.6189 -3.71709,0.50181 -3.73109,0.38421 -3.74134,0.26624 -3.7479,0.14799 -3.75069,0.0296 -3.74976,-0.0888 -3.74509,-0.20715 -3.73668,-0.32526 -3.72455,-0.44307 -3.70871,-0.56042 -3.68916,-0.67722 -3.66595,-0.79335 -3.63908,-0.90868 -3.60858,-1.02311 -3.57448,-1.13651 -3.53682,-1.24879 -3.49564,-1.35982 -3.45096,-1.4695 -3.40286,-1.5777 -3.35135,-1.68434 -3.29652,-1.7893 -3.23838,-1.89247 -3.17703,-1.99376 -3.1125,-2.09307 -3.04488,-2.19027 -2.97422,-2.28531 -2.90058,-2.37806 -2.82408,-2.46844 -2.74474,-2.55636 -2.66267,-2.64174 -2.57795,-2.72447 -2.49065,-2.8045 -2.40088,-2.88173 -2.30871,-2.95608 -2.21424,-3.0275 -2.11757,-3.09588 -2.01877,-3.16119 -1.91798,-3.22335 -1.81526,-3.28228 -1.71075,-3.33796 -1.60451,-3.3903 -1.49669,-3.43926 -1.38737,-3.48479 -1.27667,-3.52686 -1.16469,-3.56539 -1.05156,-3.60039 -0.93738,-3.6318 -0.82225,-3.65957 -0.70633,-3.68371 -0.58968,-3.70416 -0.47245,-3.72094 -0.35475,-3.734 -0.2367,-3.74333 -0.1184,-3.74894 v -3.75082 l 0.1184,-3.74894 0.2367,-3.74333 0.35475,-3.734 0.47245,-3.72094 0.58968,-3.70417 0.70633,-3.6837 0.82225,-3.65958 0.93738,-3.63179 1.05156,-3.60039 1.16469,-3.5654 1.27667,-3.52685 1.38737,-3.48479 1.49669,-3.43926 1.60451,-3.3903 1.71075,-3.33796 1.81526,-3.28228 1.91798,-3.22335 2.01877,-3.16119 2.11757,-3.09588 2.21424,-3.0275 2.30871,-2.95608 2.40088,-2.88173 2.49065,-2.8045 2.57795,-2.72448 2.66267,-2.64173 2.74474,-2.55636 2.82408,-2.46844 2.90058,-2.37806 2.97422,-2.28531 3.04488,-2.19027 3.1125,-2.09307 3.17703,-1.99376 3.23838,-1.89247 3.29652,-1.7893 3.35135,-1.68434 3.40286,-1.5777 3.45096,-1.4695 3.49564,-1.35982 3.53682,-1.24879 3.57448,-1.13651 3.60858,-1.02311 3.63908,-0.90868 3.66595,-0.79335 3.68916,-0.67722 3.70871,-0.56042 3.72455,-0.44307 3.73668,-0.32526 3.74509,-0.20715 3.74976,-0.0888 3.75069,0.0296 3.7479,0.14799 3.74134,0.26624 3.73109,0.38421 3.71709,0.50181 3.6994,0.6189 3.67801,0.73538 3.65297,0.85112 3.62428,0.96601 3.59198,1.07995 3.55609,1.1928 3.51667,1.30447 3.47373,1.41483 3.42734,1.52379 3.37753,1.63122 3.32435,1.73704 3.26785,1.84112 3.20811,1.94335 3.14516,2.04367 3.07907,2.14194 3.00992,2.23807 2.93777,2.33197 2.86269,2.42355 2.78475,2.51271 2.70404,2.59938 2.62064,2.68344 2.53462,2.76483 2.44607,2.84347 2.35509,2.91927 2.26176,2.99216 2.16617,3.06207 2.06843,3.12893 1.96862,3.19267 1.86685,3.25322 1.76322,3.31053 1.65784,3.36455 1.55079,3.4152 1.44221,3.46246 1.33219,3.50626 1.22083,3.54657 1.10826,3.58334 0.9946,3.61654 0.87992,3.64614 0.76439,3.67209 0.64808,3.6944 0.53113,3.71302 0.41366,3.72793 0.29576,3.73913 0.17757,3.74661 0.0592,3.75034 v 0"
           style="fill:none;stroke:#808080;stroke-width:1;stroke-linecap:butt;stroke-linejoin:round;stroke-miterlimit:10;stroke-dasharray:3.7, 1.6;stroke-dashoffset:0;stroke-opacity:1"
           id="path72" />
      </g>
    </g>
    <g
       id="g74">
      <g
         id="g76"
         clip-path="url(#clipPath80)">
        <path
           d="m 394.37656,221.76 -0.075,4.75043 -0.22493,4.7457 -0.37463,4.73624 -0.52396,4.72205 -0.67276,4.70315 -0.82091,4.67957 -0.96822,4.65132 -1.11457,4.61844 -1.25982,4.58095 -1.4038,4.5389 -1.54639,4.49232 -1.68744,4.44127 -1.82679,4.38578 -1.96434,4.32592 -2.09993,4.26176 -2.23341,4.19334 -2.36468,4.12075 -2.49359,4.04404 -2.62001,3.96331 -2.74382,3.87862 -2.86489,3.79008 -2.98311,3.69774 -3.09836,3.60173 -3.21052,3.50212 -3.31947,3.39902 -3.42512,3.29254 -3.52735,3.18277 -3.62607,3.06984 -3.72118,2.95383 -3.81257,2.83488 -3.90016,2.71312 -3.98386,2.58865 -4.0636,2.46158 -4.13929,2.33208 -4.21084,2.20025 -4.2782,2.06622 -4.34129,1.93013 -4.40007,1.79212 -4.45444,1.65233 -4.50439,1.51088 -4.54984,1.36793 -4.59075,1.22362 -4.62709,1.07808 -4.65882,0.93148 -4.68591,0.78394 -4.70832,0.63562 -4.72603,0.48667 -4.73904,0.33724 -4.74733,0.18746 -4.75088,0.0375 -4.7497,-0.11249 -4.74377,-0.26238 -4.73313,-0.41201 -4.71777,-0.56121 -4.69769,-0.70987 -4.67295,-0.85782 -4.64353,-1.0049 -4.6095,-1.151 -4.57087,-1.29594 -4.52767,-1.43958 -4.47998,-1.5818 -4.4278,-1.72244 -4.37123,-1.86136 -4.31028,-1.99842 -4.24505,-2.1335 -4.17559,-2.26645 -4.10195,-2.39713 -4.02423,-2.52543 -3.94251,-2.65121 -3.85684,-2.77435 -3.76734,-2.89472 -3.67408,-3.01221 -3.57716,-3.12669 -3.47667,-3.23806 -3.37272,-3.3462 -3.2654,-3.451 -3.15483,-3.55237 -3.04111,-3.65019 -2.92437,-3.74437 -2.80471,-3.83483 -2.68224,-3.92145 -2.55712,-4.00418 -2.42944,-4.0829 -2.29933,-4.15756 -2.16694,-4.22808 -2.03239,-4.29438 -1.8958,-4.35639 -1.75734,-4.41407 -1.61711,-4.46735 -1.47528,-4.51618 -1.331974,-4.56049 -1.187343,-4.60027 -1.041528,-4.63546 -0.894674,-4.66603 -0.746928,-4.69194 -0.598438,-4.71319 -0.449351,-4.72973 -0.299817,-4.74156 -0.149983,-4.74866 v -4.75102 l 0.149983,-4.74866 0.299817,-4.74156 0.449351,-4.72973 0.598438,-4.71319 0.746928,-4.69194 0.894674,-4.66603 1.041528,-4.63546 1.187343,-4.60027 1.331974,-4.5605 1.47528,-4.51617 1.61711,-4.46735 1.75734,-4.41407 1.8958,-4.35639 2.03239,-4.29438 2.16694,-4.22808 2.29933,-4.15756 2.42944,-4.0829 2.55712,-4.00418 2.68224,-3.92145 2.80471,-3.83483 2.92437,-3.74437 3.04111,-3.65019 3.15483,-3.55237 3.2654,-3.451 3.37272,-3.3462 3.47667,-3.23806 3.57716,-3.12669 3.67408,-3.01221 3.76734,-2.89472 3.85684,-2.774348 3.94251,-2.651211 4.02423,-2.52543 4.10195,-2.397132 4.17559,-2.266445 4.24505,-2.133499 4.31028,-1.998425 4.37123,-1.861359 4.4278,-1.722439 4.47998,-1.5818 4.52767,-1.439586 4.57087,-1.295936 4.6095,-1.150995 4.64353,-1.004906 4.67295,-0.857815 4.69769,-0.70987 4.71777,-0.561216 4.73313,-0.412004 4.74377,-0.262381 4.7497,-0.112495 4.75088,0.0375 4.74733,0.187461 4.73904,0.337234 4.72603,0.486671 4.70832,0.635622 4.68591,0.78394 4.65882,0.931477 4.62709,1.078084 4.59075,1.223618 4.54984,1.367932 4.50439,1.510881 4.45444,1.652326 4.40007,1.792122 4.34129,1.930133 4.2782,2.066219 4.21084,2.200246 4.13929,2.332079 4.0636,2.461588 3.98386,2.588644 3.90016,2.713118 3.81257,2.834887 3.72118,2.95383 3.62607,3.06984 3.52735,3.18277 3.42512,3.29254 3.31947,3.39902 3.21052,3.50212 3.09836,3.60173 2.98311,3.69774 2.86489,3.79008 2.74382,3.87862 2.62001,3.96331 2.49359,4.04404 2.36468,4.12075 2.23341,4.19334 2.09993,4.26176 1.96434,4.32592 1.82679,4.38578 1.68744,4.44127 1.54639,4.49232 1.4038,4.53889 1.25982,4.58096 1.11457,4.61844 0.96822,4.65132 0.82091,4.67957 0.67276,4.70315 0.52396,4.72205 0.37463,4.73623 0.22493,4.7457 0.075,4.75044 v 0"
           style="fill:none;stroke:#808080;stroke-width:1;stroke-linecap:butt;stroke-linejoin:round;stroke-miterlimit:10;stroke-dasharray:3.7, 1.6;stroke-dashoffset:0;stroke-opacity:1"
           id="path82" />
      </g>
    </g>
    <g
       id="g84">
      <g
         id="g86"
         clip-path="url(#clipPath90)">
        <path
           d="m 243.89656,221.76 h 194.832"
           style="fill:none;stroke:#808080;stroke-width:1;stroke-linecap:butt;stroke-linejoin:round;stroke-miterlimit:10;stroke-dasharray:3.7, 1.6;stroke-dashoffset:0;stroke-opacity:0.6"
           id="path92" />
      </g>
    </g>
    <g
       id="g94">
      <g
         id="g96"
         clip-path="url(#clipPath100)">
        <path
           d="m 243.89656,221.76 157.6224,114.51938"
           style="fill:none;stroke:#808080;stroke-width:1;stroke-linecap:butt;stroke-linejoin:round;stroke-miterlimit:10;stroke-dasharray:3.7, 1.6;stroke-dashoffset:0;stroke-opacity:0.6"
           id="path102" />
      </g>
    </g>
    <g
       id="g104">
      <g
         id="g106"
         clip-path="url(#clipPath110)">
        <path
           d="m 243.89656,221.76 60.2064,185.29624"
           style="fill:none;stroke:#808080;stroke-width:1;stroke-linecap:butt;stroke-linejoin:round;stroke-miterlimit:10;stroke-dasharray:3.7, 1.6;stroke-dashoffset:0;stroke-opacity:0.6"
           id="path112" />
      </g>
    </g>
    <g
       id="g114">
      <g
         id="g116"
         clip-path="url(#clipPath120)">
        <path
           d="m 243.89656,221.76 -60.2064,185.29624"
           style="fill:none;stroke:#808080;stroke-width:1;stroke-linecap:butt;stroke-linejoin:round;stroke-miterlimit:10;stroke-dasharray:3.7, 1.6;stroke-dashoffset:0;stroke-opacity:0.6"
           id="path122" />
      </g>
    </g>
    <g
       id="g124">
      <g
         id="g126"
         clip-path="url(#clipPath130)">
        <path
           d="M 243.89656,221.76 86.274163,336.27938"
           style="fill:none;stroke:#808080;stroke-width:1;stroke-linecap:butt;stroke-linejoin:round;stroke-miterlimit:10;stroke-dasharray:3.7, 1.6;stroke-dashoffset:0;stroke-opacity:0.6"
           id="path132" />
      </g>
    </g>
    <g
       id="g134">
      <g
         id="g136"
         clip-path="url(#clipPath140)">
        <path
           d="M 243.89656,221.76 H 49.064562"
           style="fill:none;stroke:#808080;stroke-width:1;stroke-linecap:butt;stroke-linejoin:round;stroke-miterlimit:10;stroke-dasharray:3.7, 1.6;stroke-dashoffset:0;stroke-opacity:0.6"
           id="path142" />
      </g>
    </g>
    <g
       id="g144">
      <g
         id="g146"
         clip-path="url(#clipPath150)">
        <path
           d="M 243.89656,221.76 86.274163,107.24062"
           style="fill:none;stroke:#808080;stroke-width:1;stroke-linecap:butt;stroke-linejoin:round;stroke-miterlimit:10;stroke-dasharray:3.7, 1.6;stroke-dashoffset:0;stroke-opacity:0.6"
           id="path152" />
      </g>
    </g>
    <g
       id="g154">
      <g
         id="g156"
         clip-path="url(#clipPath160)">
        <path
           d="M 243.89656,221.76 183.69016,36.463757"
           style="fill:none;stroke:#808080;stroke-width:1;stroke-linecap:butt;stroke-linejoin:round;stroke-miterlimit:10;stroke-dasharray:3.7, 1.6;stroke-dashoffset:0;stroke-opacity:0.6"
           id="path162" />
      </g>
    </g>
    <g
       id="g164">
      <g
         id="g166"
         clip-path="url(#clipPath170)">
        <path
           d="M 243.89656,221.76 304.10296,36.463757"
           style="fill:none;stroke:#808080;stroke-width:1;stroke-linecap:butt;stroke-linejoin:round;stroke-miterlimit:10;stroke-dasharray:3.7, 1.6;stroke-dashoffset:0;stroke-opacity:0.6"
           id="path172" />
      </g>
    </g>
    <g
       id="g174">
      <g
         id="g176"
         clip-path="url(#clipPath180)">
        <path
           d="M 243.89656,221.76 401.51896,107.24062"
           style="fill:none;stroke:#808080;stroke-width:1;stroke-linecap:butt;stroke-linejoin:round;stroke-miterlimit:10;stroke-dasharray:3.7, 1.6;stroke-dashoffset:0;stroke-opacity:0.6"
           id="path182" />
      </g>
    </g>
    <g
       id="g184">
      <g
         id="g186"
         transform="translate(317.03176,224.04125)">
        <text
           xml:space="preserve"
           transform="scale(1,-1)"
           style="font-variant:normal;font-weight:normal;font-size:11px;font-family:'DejaVu Sans';-inkscape-font-specification:DejaVuSans;writing-mode:lr-tb;fill:#808080;fill-opacity:1;fill-rule:nonzero;stroke:none"
           id="text190"><tspan
             x="0 6.9959998 13.992"
             y="0"
             id="tspan188">256</tspan></text>
      </g>
      <g
         id="g192"
         transform="translate(304.55886,273.20079)">
        <text
           xml:space="preserve"
           transform="scale(1,-1)"
           style="font-variant:normal;font-weight:normal;font-size:11px;font-family:'DejaVu Sans';-inkscape-font-specification:DejaVuSans;writing-mode:lr-tb;fill:#808080;fill-opacity:1;fill-rule:nonzero;stroke:none"
           id="text196"><tspan
             x="0 6.9959998"
             y="0"
             id="tspan194">34</tspan></text>
      </g>
      <g
         id="g198"
         transform="translate(262.74126,303.58305)">
        <text
           xml:space="preserve"
           transform="scale(1,-1)"
           style="font-variant:normal;font-weight:normal;font-size:11px;font-family:'DejaVu Sans';-inkscape-font-specification:DejaVuSans;writing-mode:lr-tb;fill:#808080;fill-opacity:1;fill-rule:nonzero;stroke:none"
           id="text202"><tspan
             x="0 6.9959998"
             y="0"
             id="tspan200">28</tspan></text>
      </g>
      <g
         id="g204"
         transform="translate(211.05186,303.58305)">
        <text
           xml:space="preserve"
           transform="scale(1,-1)"
           style="font-variant:normal;font-weight:normal;font-size:11px;font-family:'DejaVu Sans';-inkscape-font-specification:DejaVuSans;writing-mode:lr-tb;fill:#808080;fill-opacity:1;fill-rule:nonzero;stroke:none"
           id="text208"><tspan
             x="0 6.9959998"
             y="0"
             id="tspan206">40</tspan></text>
      </g>
      <g
         id="g210"
         transform="translate(169.23426,273.20079)">
        <text
           xml:space="preserve"
           transform="scale(1,-1)"
           style="font-variant:normal;font-weight:normal;font-size:11px;font-family:'DejaVu Sans';-inkscape-font-specification:DejaVuSans;writing-mode:lr-tb;fill:#808080;fill-opacity:1;fill-rule:nonzero;stroke:none"
           id="text214"><tspan
             x="0 6.9959998"
             y="0"
             id="tspan212">51</tspan></text>
      </g>
      <g
         id="g216"
         transform="translate(153.26136,224.04125)">
        <text
           xml:space="preserve"
           transform="scale(1,-1)"
           style="font-variant:normal;font-weight:normal;font-size:11px;font-family:'DejaVu Sans';-inkscape-font-specification:DejaVuSans;writing-mode:lr-tb;fill:#808080;fill-opacity:1;fill-rule:nonzero;stroke:none"
           id="text220"><tspan
             x="0 6.9959998"
             y="0"
             id="tspan218">49</tspan></text>
      </g>
      <g
         id="g222"
         transform="translate(169.23426,174.88171)">
        <text
           xml:space="preserve"
           transform="scale(1,-1)"
           style="font-variant:normal;font-weight:normal;font-size:11px;font-family:'DejaVu Sans';-inkscape-font-specification:DejaVuSans;writing-mode:lr-tb;fill:#808080;fill-opacity:1;fill-rule:nonzero;stroke:none"
           id="text226"><tspan
             x="0 6.9959998"
             y="0"
             id="tspan224">34</tspan></text>
      </g>
      <g
         id="g228"
         transform="translate(211.05186,144.49945)">
        <text
           xml:space="preserve"
           transform="scale(1,-1)"
           style="font-variant:normal;font-weight:normal;font-size:11px;font-family:'DejaVu Sans';-inkscape-font-specification:DejaVuSans;writing-mode:lr-tb;fill:#808080;fill-opacity:1;fill-rule:nonzero;stroke:none"
           id="text232"><tspan
             x="0 6.9959998"
             y="0"
             id="tspan230">40</tspan></text>
      </g>
      <g
         id="g234"
         transform="translate(262.74126,144.49945)">
        <text
           xml:space="preserve"
           transform="scale(1,-1)"
           style="font-variant:normal;font-weight:normal;font-size:11px;font-family:'DejaVu Sans';-inkscape-font-specification:DejaVuSans;writing-mode:lr-tb;fill:#808080;fill-opacity:1;fill-rule:nonzero;stroke:none"
           id="text238"><tspan
             x="0 6.9959998"
             y="0"
             id="tspan236">43</tspan></text>
      </g>
      <g
         id="g240"
         transform="translate(304.55886,174.88171)">
        <text
           xml:space="preserve"
           transform="scale(1,-1)"
           style="font-variant:normal;font-weight:normal;font-size:11px;font-family:'DejaVu Sans';-inkscape-font-specification:DejaVuSans;writing-mode:lr-tb;fill:#808080;fill-opacity:1;fill-rule:nonzero;stroke:none"
           id="text244"><tspan
             x="0 6.9959998"
             y="0"
             id="tspan242">24</tspan></text>
      </g>
      <g
         id="g246"
         transform="translate(356.63176,224.04125)">
        <text
           xml:space="preserve"
           transform="scale(1,-1)"
           style="font-variant:normal;font-weight:normal;font-size:11px;font-family:'DejaVu Sans';-inkscape-font-specification:DejaVuSans;writing-mode:lr-tb;fill:#808080;fill-opacity:1;fill-rule:nonzero;stroke:none"
           id="text250"><tspan
             x="0 6.9959998 13.992"
             y="0"
             id="tspan248">373</tspan></text>
      </g>
      <g
         id="g252"
         transform="translate(336.59593,296.47708)">
        <text
           xml:space="preserve"
           transform="scale(1,-1)"
           style="font-variant:normal;font-weight:normal;font-size:11px;font-family:'DejaVu Sans';-inkscape-font-specification:DejaVuSans;writing-mode:lr-tb;fill:#808080;fill-opacity:1;fill-rule:nonzero;stroke:none"
           id="text256"><tspan
             x="0 6.9959998"
             y="0"
             id="tspan254">41</tspan></text>
      </g>
      <g
         id="g258"
         transform="translate(274.97833,341.24489)">
        <text
           xml:space="preserve"
           transform="scale(1,-1)"
           style="font-variant:normal;font-weight:normal;font-size:11px;font-family:'DejaVu Sans';-inkscape-font-specification:DejaVuSans;writing-mode:lr-tb;fill:#808080;fill-opacity:1;fill-rule:nonzero;stroke:none"
           id="text262"><tspan
             x="0 6.9959998"
             y="0"
             id="tspan260">31</tspan></text>
      </g>
      <g
         id="g264"
         transform="translate(198.81479,341.24489)">
        <text
           xml:space="preserve"
           transform="scale(1,-1)"
           style="font-variant:normal;font-weight:normal;font-size:11px;font-family:'DejaVu Sans';-inkscape-font-specification:DejaVuSans;writing-mode:lr-tb;fill:#808080;fill-opacity:1;fill-rule:nonzero;stroke:none"
           id="text268"><tspan
             x="0 6.9959998"
             y="0"
             id="tspan266">50</tspan></text>
      </g>
      <g
         id="g270"
         transform="translate(137.19719,296.47708)">
        <text
           xml:space="preserve"
           transform="scale(1,-1)"
           style="font-variant:normal;font-weight:normal;font-size:11px;font-family:'DejaVu Sans';-inkscape-font-specification:DejaVuSans;writing-mode:lr-tb;fill:#808080;fill-opacity:1;fill-rule:nonzero;stroke:none"
           id="text274"><tspan
             x="0 6.9959998"
             y="0"
             id="tspan272">67</tspan></text>
      </g>
      <g
         id="g276"
         transform="translate(113.66136,224.04125)">
        <text
           xml:space="preserve"
           transform="scale(1,-1)"
           style="font-variant:normal;font-weight:normal;font-size:11px;font-family:'DejaVu Sans';-inkscape-font-specification:DejaVuSans;writing-mode:lr-tb;fill:#808080;fill-opacity:1;fill-rule:nonzero;stroke:none"
           id="text280"><tspan
             x="0 6.9959998"
             y="0"
             id="tspan278">64</tspan></text>
      </g>
      <g
         id="g282"
         transform="translate(137.19719,151.60542)">
        <text
           xml:space="preserve"
           transform="scale(1,-1)"
           style="font-variant:normal;font-weight:normal;font-size:11px;font-family:'DejaVu Sans';-inkscape-font-specification:DejaVuSans;writing-mode:lr-tb;fill:#808080;fill-opacity:1;fill-rule:nonzero;stroke:none"
           id="text286"><tspan
             x="0 6.9959998"
             y="0"
             id="tspan284">41</tspan></text>
      </g>
      <g
         id="g288"
         transform="translate(198.81479,106.83761)">
        <text
           xml:space="preserve"
           transform="scale(1,-1)"
           style="font-variant:normal;font-weight:normal;font-size:11px;font-family:'DejaVu Sans';-inkscape-font-specification:DejaVuSans;writing-mode:lr-tb;fill:#808080;fill-opacity:1;fill-rule:nonzero;stroke:none"
           id="text292"><tspan
             x="0 6.9959998"
             y="0"
             id="tspan290">50</tspan></text>
      </g>
      <g
         id="g294"
         transform="translate(274.97833,106.83761)">
        <text
           xml:space="preserve"
           transform="scale(1,-1)"
           style="font-variant:normal;font-weight:normal;font-size:11px;font-family:'DejaVu Sans';-inkscape-font-specification:DejaVuSans;writing-mode:lr-tb;fill:#808080;fill-opacity:1;fill-rule:nonzero;stroke:none"
           id="text298"><tspan
             x="0 6.9959998"
             y="0"
             id="tspan296">55</tspan></text>
      </g>
      <g
         id="g300"
         transform="translate(336.59593,151.60542)">
        <text
           xml:space="preserve"
           transform="scale(1,-1)"
           style="font-variant:normal;font-weight:normal;font-size:11px;font-family:'DejaVu Sans';-inkscape-font-specification:DejaVuSans;writing-mode:lr-tb;fill:#808080;fill-opacity:1;fill-rule:nonzero;stroke:none"
           id="text304"><tspan
             x="0 6.9959998"
             y="0"
             id="tspan302">27</tspan></text>
      </g>
      <g
         id="g306"
         transform="translate(388.31176,224.04125)">
        <text
           xml:space="preserve"
           transform="scale(1,-1)"
           style="font-variant:normal;font-weight:normal;font-size:11px;font-family:'DejaVu Sans';-inkscape-font-specification:DejaVuSans;writing-mode:lr-tb;fill:#808080;fill-opacity:1;fill-rule:nonzero;stroke:none"
           id="text310"><tspan
             x="0 6.9959998 13.992"
             y="0"
             id="tspan308">467</tspan></text>
      </g>
      <g
         id="g312"
         transform="translate(362.22559,315.09812)">
        <text
           xml:space="preserve"
           transform="scale(1,-1)"
           style="font-variant:normal;font-weight:normal;font-size:11px;font-family:'DejaVu Sans';-inkscape-font-specification:DejaVuSans;writing-mode:lr-tb;fill:#808080;fill-opacity:1;fill-rule:nonzero;stroke:none"
           id="text316"><tspan
             x="0 6.9959998"
             y="0"
             id="tspan314">47</tspan></text>
      </g>
      <g
         id="g318"
         transform="translate(284.76799,371.37436)">
        <text
           xml:space="preserve"
           transform="scale(1,-1)"
           style="font-variant:normal;font-weight:normal;font-size:11px;font-family:'DejaVu Sans';-inkscape-font-specification:DejaVuSans;writing-mode:lr-tb;fill:#808080;fill-opacity:1;fill-rule:nonzero;stroke:none"
           id="text322"><tspan
             x="0 6.9959998"
             y="0"
             id="tspan320">34</tspan></text>
      </g>
      <g
         id="g324"
         transform="translate(189.02513,371.37436)">
        <text
           xml:space="preserve"
           transform="scale(1,-1)"
           style="font-variant:normal;font-weight:normal;font-size:11px;font-family:'DejaVu Sans';-inkscape-font-specification:DejaVuSans;writing-mode:lr-tb;fill:#808080;fill-opacity:1;fill-rule:nonzero;stroke:none"
           id="text328"><tspan
             x="0 6.9959998"
             y="0"
             id="tspan326">58</tspan></text>
      </g>
      <g
         id="g330"
         transform="translate(111.56753,315.09812)">
        <text
           xml:space="preserve"
           transform="scale(1,-1)"
           style="font-variant:normal;font-weight:normal;font-size:11px;font-family:'DejaVu Sans';-inkscape-font-specification:DejaVuSans;writing-mode:lr-tb;fill:#808080;fill-opacity:1;fill-rule:nonzero;stroke:none"
           id="text334"><tspan
             x="0 6.9959998"
             y="0"
             id="tspan332">80</tspan></text>
      </g>
      <g
         id="g336"
         transform="translate(81.981363,224.04125)">
        <text
           xml:space="preserve"
           transform="scale(1,-1)"
           style="font-variant:normal;font-weight:normal;font-size:11px;font-family:'DejaVu Sans';-inkscape-font-specification:DejaVuSans;writing-mode:lr-tb;fill:#808080;fill-opacity:1;fill-rule:nonzero;stroke:none"
           id="text340"><tspan
             x="0 6.9959998"
             y="0"
             id="tspan338">75</tspan></text>
      </g>
      <g
         id="g342"
         transform="translate(111.56753,132.98438)">
        <text
           xml:space="preserve"
           transform="scale(1,-1)"
           style="font-variant:normal;font-weight:normal;font-size:11px;font-family:'DejaVu Sans';-inkscape-font-specification:DejaVuSans;writing-mode:lr-tb;fill:#808080;fill-opacity:1;fill-rule:nonzero;stroke:none"
           id="text346"><tspan
             x="0 6.9959998"
             y="0"
             id="tspan344">47</tspan></text>
      </g>
      <g
         id="g348"
         transform="translate(189.02513,76.70814)">
        <text
           xml:space="preserve"
           transform="scale(1,-1)"
           style="font-variant:normal;font-weight:normal;font-size:11px;font-family:'DejaVu Sans';-inkscape-font-specification:DejaVuSans;writing-mode:lr-tb;fill:#808080;fill-opacity:1;fill-rule:nonzero;stroke:none"
           id="text352"><tspan
             x="0 6.9959998"
             y="0"
             id="tspan350">58</tspan></text>
      </g>
      <g
         id="g354"
         transform="translate(284.76799,76.70814)">
        <text
           xml:space="preserve"
           transform="scale(1,-1)"
           style="font-variant:normal;font-weight:normal;font-size:11px;font-family:'DejaVu Sans';-inkscape-font-specification:DejaVuSans;writing-mode:lr-tb;fill:#808080;fill-opacity:1;fill-rule:nonzero;stroke:none"
           id="text358"><tspan
             x="0 6.9959998"
             y="0"
             id="tspan356">64</tspan></text>
      </g>
      <g
         id="g360"
         transform="translate(362.22559,132.98438)">
        <text
           xml:space="preserve"
           transform="scale(1,-1)"
           style="font-variant:normal;font-weight:normal;font-size:11px;font-family:'DejaVu Sans';-inkscape-font-specification:DejaVuSans;writing-mode:lr-tb;fill:#808080;fill-opacity:1;fill-rule:nonzero;stroke:none"
           id="text364"><tspan
             x="0 6.9959998"
             y="0"
             id="tspan362">29</tspan></text>
      </g>
      <g
         id="g366"
         transform="translate(428.59781,216.79906)">
        <text
           xml:space="preserve"
           transform="scale(1,-1)"
           style="font-variant:normal;font-weight:normal;font-size:18px;font-family:'DejaVu Sans';-inkscape-font-specification:DejaVuSans;writing-mode:lr-tb;fill:#000000;fill-opacity:1;fill-rule:nonzero;stroke:none"
           id="text370"><tspan
             x="0 15.534 31.068001"
             y="0"
             id="tspan368">MME</tspan></text>
      </g>
      <g
         id="g372"
         transform="translate(380.60653,337.8358)">
        <text
           xml:space="preserve"
           transform="scale(1,-1)"
           style="font-variant:normal;font-weight:normal;font-size:18px;font-family:'DejaVu Sans';-inkscape-font-specification:DejaVuSans;writing-mode:lr-tb;fill:#000000;fill-opacity:1;fill-rule:nonzero;stroke:none"
           id="text376"><tspan
             x="0 15.534 31.068001 46.602001"
             y="0"
             id="tspan374">MMMU</tspan></text>
      </g>
      <g
         id="g378"
         transform="translate(260.1309,412.64062)">
        <text
           xml:space="preserve"
           transform="scale(1,-1)"
           style="font-variant:normal;font-weight:normal;font-size:18px;font-family:'DejaVu Sans';-inkscape-font-specification:DejaVuSans;writing-mode:lr-tb;fill:#000000;fill-opacity:1;fill-rule:nonzero;stroke:none"
           id="text382"><tspan
             x="0 15.534 31.068001 46.602001 59.778 66.276001 76.817497 83.824875"
             y="0"
             id="tspan380">MMMU-Pro</tspan></text>
      </g>
      <g
         id="g384"
         transform="translate(146.2716,412.64062)">
        <text
           xml:space="preserve"
           transform="scale(1,-1)"
           style="font-variant:normal;font-weight:normal;font-size:18px;font-family:'DejaVu Sans';-inkscape-font-specification:DejaVuSans;writing-mode:lr-tb;fill:#000000;fill-opacity:1;fill-rule:nonzero;stroke:none"
           id="text388"><tspan
             x="0 15.534 31.068001 42.498001 49.554001 60.588001"
             y="0"
             id="tspan386">MMStar</tspan></text>
      </g>
      <g
         id="g390"
         transform="translate(33.710033,337.8358)">
        <text
           xml:space="preserve"
           transform="scale(1,-1)"
           style="font-variant:normal;font-weight:normal;font-size:18px;font-family:'DejaVu Sans';-inkscape-font-specification:DejaVuSans;writing-mode:lr-tb;fill:#000000;fill-opacity:1;fill-rule:nonzero;stroke:none"
           id="text394"><tspan
             x="0 15.534 31.068001 43.416 54.486 65.898003 75.797997"
             y="0"
             id="tspan392">MMBench</tspan></text>
      </g>
      <g
         id="g396"
         transform="translate(0,216.79906)">
        <text
           xml:space="preserve"
           transform="scale(1,-1)"
           style="font-variant:normal;font-weight:normal;font-size:18px;font-family:'DejaVu Sans';-inkscape-font-specification:DejaVuSans;writing-mode:lr-tb;fill:#000000;fill-opacity:1;fill-rule:nonzero;stroke:none"
           id="text400"><tspan
             x="0 12.564 23.976 35.009998 42.408001 49.464001 63.630001"
             y="0"
             id="tspan398">ChartQA</tspan></text>
      </g>
      <g
         id="g402"
         transform="translate(29.569408,95.762323)">
        <text
           xml:space="preserve"
           transform="scale(1,-1)"
           style="font-variant:normal;font-weight:normal;font-size:18px;font-family:'DejaVu Sans';-inkscape-font-specification:DejaVuSans;writing-mode:lr-tb;fill:#000000;fill-opacity:1;fill-rule:nonzero;stroke:none"
           id="text406"><tspan
             x="0 15.534 26.945999 31.950001 39.348 51.695999 62.765999 74.178001 84.078003"
             y="0"
             id="tspan404">MuirBench</tspan></text>
      </g>
      <g
         id="g408"
         transform="translate(155.74035,20.957505)">
        <text
           xml:space="preserve"
           transform="scale(1,-1)"
           style="font-variant:normal;font-weight:normal;font-size:18px;font-family:'DejaVu Sans';-inkscape-font-specification:DejaVuSans;writing-mode:lr-tb;fill:#000000;fill-opacity:1;fill-rule:nonzero;stroke:none"
           id="text412"><tspan
             x="0 15.534 23.591249 35.903252"
             y="0"
             id="tspan410">MLVU</tspan></text>
      </g>
      <g
         id="g414"
         transform="translate(271.09184,20.957505)">
        <text
           xml:space="preserve"
           transform="scale(1,-1)"
           style="font-variant:normal;font-weight:normal;font-size:18px;font-family:'DejaVu Sans';-inkscape-font-specification:DejaVuSans;writing-mode:lr-tb;fill:#000000;fill-opacity:1;fill-rule:nonzero;stroke:none"
           id="text418"><tspan
             x="0 5.3099999 16.722 23.058001 34.074001 46.386002 60.551998"
             y="0"
             id="tspan416">InfoVQA</tspan></text>
      </g>
      <g
         id="g420"
         transform="translate(363.03622,95.762323)">
        <text
           xml:space="preserve"
           transform="scale(1,-1)"
           style="font-variant:normal;font-weight:normal;font-size:18px;font-family:'DejaVu Sans';-inkscape-font-specification:DejaVuSans;writing-mode:lr-tb;fill:#000000;fill-opacity:1;fill-rule:nonzero;stroke:none"
           id="text424"><tspan
             x="0 15.534 26.568001 33.624001 45.035999 55.957375 67.027374 74.425377 83.803375"
             y="0"
             id="tspan422">MathVerse</tspan></text>
      </g>
      <path
         d="m 348.67096,65.847875 h 18 18"
         style="fill:none;stroke:#ff0000;stroke-width:2;stroke-linecap:square;stroke-linejoin:round;stroke-miterlimit:10;stroke-dasharray:none;stroke-opacity:1"
         id="path426" />
      <g
         id="g428"
         transform="translate(399.07096,59.547875)">
        <text
           xml:space="preserve"
           transform="scale(1,-1)"
           style="font-variant:normal;font-weight:normal;font-size:18px;font-family:'DejaVu Sans';-inkscape-font-specification:DejaVuSans;writing-mode:lr-tb;fill:#000000;fill-opacity:1;fill-rule:nonzero;stroke:none"
           id="text432"><tspan
             x="0 10.026 20.052 31.086 46.619999 58.931999 70.379997 75.831123"
             y="0"
             id="tspan430">LLaMA3-V</tspan></text>
      </g>
      <path
         d="m 348.67096,39.426 h 18 18"
         style="fill:none;stroke:#9400d3;stroke-width:2;stroke-linecap:square;stroke-linejoin:round;stroke-miterlimit:10;stroke-dasharray:none;stroke-opacity:1"
         id="path434" />
      <g
         id="g436"
         transform="translate(399.07096,33.126)">
        <text
           xml:space="preserve"
           transform="scale(1,-1)"
           style="font-variant:normal;font-weight:normal;font-size:18px;font-family:'DejaVu Sans';-inkscape-font-specification:DejaVuSans;writing-mode:lr-tb;fill:#000000;fill-opacity:1;fill-rule:nonzero;stroke:none"
           id="text440"><tspan
             x="0 10.026 20.052 31.086 44.633499 56.554874 62.006001 74.318001 80.042 87.061996 98.078003 109.49 116.888 126.266"
             y="0"
             id="tspan438">LLaDA-V (ours)</tspan></text>
      </g>
    </g>
  </g>
</svg>
